<svg width="64" height="64" viewBox="0 0 64 64" fill="none" xmlns="http://www.w3.org/2000/svg">
<circle cx="32" cy="32" r="30.4422" stroke="url(#paint0_linear_192_833)" stroke-width="3.11562" stroke-dasharray="0.52 0.52"/>
<circle cx="32" cy="32" r="31.7404" stroke="url(#paint1_linear_192_833)" stroke-width="0.51927"/>
<path d="M32.1592 24.842C33.1925 24.8421 34.1009 25.0194 34.8809 25.3772C35.6637 25.7344 36.2774 26.2335 36.7168 26.8762C37.157 27.5203 37.3827 28.2657 37.3965 29.1067L37.3984 29.2405H34.3643L34.3525 29.1213C34.3023 28.6148 34.0898 28.2297 33.7158 27.9544C33.3391 27.677 32.8179 27.5315 32.1387 27.5315C31.6767 27.5315 31.2951 27.5972 30.9893 27.7229H30.9873C30.6791 27.8454 30.4508 28.0138 30.2939 28.2229C30.1419 28.4316 30.0655 28.667 30.0654 28.9338V28.9387C30.0573 29.1616 30.1037 29.3495 30.1992 29.5071C30.3044 29.673 30.4493 29.8187 30.6367 29.9436C30.8277 30.0665 31.05 30.1757 31.3047 30.2708C31.5628 30.3626 31.8392 30.4421 32.1338 30.5081H32.1357L33.3691 30.803H33.3682C33.9738 30.9386 34.5312 31.1198 35.04 31.3469C35.5513 31.5752 35.9965 31.8575 36.374 32.1936C36.7539 32.5318 37.0491 32.9308 37.2578 33.3899H37.2568C37.4712 33.8517 37.5794 34.3771 37.584 34.9641V34.9661C37.5794 35.829 37.3592 36.584 36.918 37.2249C36.5362 37.7812 36.0069 38.2263 35.335 38.5618L35.0381 38.6985C34.227 39.0422 33.2545 39.2112 32.125 39.2112C31.004 39.2112 30.021 39.0401 29.1797 38.6926C28.3411 38.3444 27.681 37.8264 27.2051 37.1379V37.137C26.7323 36.4417 26.4876 35.5865 26.4648 34.5794L26.4619 34.4446H29.5273L29.5361 34.5676C29.566 35.0073 29.6912 35.3655 29.9053 35.6497H29.9043C30.1247 35.9321 30.419 36.1478 30.791 36.2962C31.1712 36.4414 31.6047 36.5159 32.0918 36.5159C32.5707 36.5159 32.9803 36.4463 33.3232 36.3108L33.3242 36.3098C33.673 36.1736 33.9355 35.9876 34.1191 35.7551C34.3015 35.5242 34.3926 35.2599 34.3926 34.9583C34.3925 34.6784 34.3103 34.4511 34.1504 34.2678L34.1494 34.2669C33.988 34.0772 33.7435 33.9091 33.4072 33.7669V33.7659C33.072 33.6222 32.6568 33.4908 32.1611 33.3713H32.1602L30.667 32.9954V32.9963C29.4955 32.7114 28.5598 32.2627 27.8691 31.6458C27.211 31.0578 26.8667 30.2789 26.8301 29.3215L26.8271 29.1282C26.8228 28.2726 27.0507 27.5194 27.5146 26.8743L27.5156 26.8733C27.982 26.2314 28.62 25.7329 29.4248 25.3762C30.2304 25.0192 31.1431 24.842 32.1592 24.842Z" fill="url(#paint2_linear_192_833)" stroke="url(#paint3_linear_192_833)" stroke-width="0.263383"/>
<path d="M38.1699 20.0084C38.1699 22.2383 39.9849 24.4966 42.2236 24.4966C39.985 24.4966 38.1702 26.3948 38.1699 28.6246C38.1697 26.3948 36.3323 24.3619 34.0938 24.3619C36.3325 24.3619 38.1699 22.2383 38.1699 20.0084Z" fill="url(#paint4_linear_192_833)"/>
<path d="M38.1699 20.0084C38.1699 22.2383 39.9849 24.4966 42.2236 24.4966C39.985 24.4966 38.1702 26.3948 38.1699 28.6246C38.1697 26.3948 36.3323 24.3619 34.0938 24.3619C36.3325 24.3619 38.1699 22.2383 38.1699 20.0084Z" stroke="url(#paint5_linear_192_833)"/>
<path d="M47.9395 25.4472L47.9473 25.456L43.293 24.1259L44.8076 23.0331C43.8438 21.6573 42.6616 20.438 41.2988 19.4296C38.9781 17.7124 36.2275 16.6705 33.3516 16.4189C30.4756 16.1673 27.5856 16.7157 25.002 18.0038C22.4184 19.292 20.2417 21.2704 18.7119 23.7187L17.2363 22.7968C18.9362 20.0765 21.3558 17.8785 24.2266 16.4472C27.0971 15.0161 30.3076 14.4069 33.5029 14.6864C36.6985 14.966 39.7544 16.1241 42.333 18.0322C44.9116 19.9402 46.9126 22.5238 48.1143 25.498L47.9395 25.4472Z" fill="url(#paint6_linear_192_833)"/>
<path d="M16.0483 38.599L16.0405 38.5902L20.6948 39.9202L19.1802 41.013C20.144 42.3889 21.3262 43.6081 22.689 44.6165C25.0097 46.3337 27.7603 47.3757 30.6362 47.6273C33.5122 47.8789 36.4022 47.3305 38.9858 46.0423C41.5694 44.7541 43.7461 42.7757 45.2759 40.3275L46.7515 41.2493C45.0516 43.9697 42.632 46.1677 39.7612 47.599C36.8907 49.0301 33.6802 49.6392 30.4849 49.3597C27.2893 49.0801 24.2333 47.922 21.6548 46.014C19.0762 44.1059 17.0752 41.5223 15.8735 38.5482L16.0483 38.599Z" fill="url(#paint7_linear_192_833)"/>
<path d="M40.9526 53.747L40.9409 53.7578L42.7524 47.4169L44.2417 49.4804C46.1159 48.1675 47.7762 46.5565 49.1499 44.7001C51.4894 41.5384 52.9096 37.7912 53.2524 33.873C53.5952 29.9548 52.8473 26.0179 51.0923 22.498C49.3373 18.9782 46.6435 16.0119 43.3081 13.9277L44.564 11.9179C48.27 14.2337 51.2634 17.5295 53.2134 21.4404C55.1633 25.3513 55.9936 29.7256 55.6128 34.079C55.2319 38.4326 53.6546 42.5963 51.0552 46.1093C48.4557 49.6223 44.9353 52.3482 40.8833 53.9853L40.9526 53.747Z" fill="url(#paint8_linear_192_833)"/>
<path d="M23.0352 10.2991L23.0469 10.2884L21.2354 16.6292L19.7461 14.5657C17.8718 15.8787 16.2116 17.4896 14.8379 19.346C12.4984 22.5077 11.0782 26.255 10.7354 30.1732C10.3926 34.0914 11.1405 38.0282 12.8955 41.5482C14.6505 45.068 17.3443 48.0342 20.6797 50.1185L19.4238 52.1282C15.7178 49.8124 12.7244 46.5167 10.7744 42.6058C8.8245 38.6949 7.9942 34.3205 8.375 29.9671C8.75588 25.6136 10.3332 21.4498 12.9326 17.9368C15.5321 14.4238 19.0525 11.698 23.1045 10.0609L23.0352 10.2991Z" fill="url(#paint9_linear_192_833)"/>
<path d="M40.9526 53.747L40.9409 53.7578L42.7524 47.4169L44.2417 49.4804C46.1159 48.1675 47.7762 46.5565 49.1499 44.7001C51.4894 41.5384 52.9096 37.7912 53.2524 33.873C53.5952 29.9548 52.8473 26.0179 51.0923 22.498C49.3373 18.9782 46.6435 16.0119 43.3081 13.9277L44.564 11.9179C48.27 14.2337 51.2634 17.5295 53.2134 21.4404C55.1633 25.3513 55.9936 29.7256 55.6128 34.079C55.2319 38.4326 53.6546 42.5963 51.0552 46.1093C48.4557 49.6223 44.9353 52.3482 40.8833 53.9853L40.9526 53.747Z" fill="url(#paint10_linear_192_833)"/>
<path d="M23.0352 10.2991L23.0469 10.2884L21.2354 16.6292L19.7461 14.5657C17.8718 15.8787 16.2116 17.4896 14.8379 19.346C12.4984 22.5077 11.0782 26.255 10.7354 30.1732C10.3926 34.0914 11.1405 38.0282 12.8955 41.5482C14.6505 45.068 17.3443 48.0342 20.6797 50.1185L19.4238 52.1282C15.7178 49.8124 12.7244 46.5167 10.7744 42.6058C8.8245 38.6949 7.9942 34.3205 8.375 29.9671C8.75588 25.6136 10.3332 21.4498 12.9326 17.9368C15.5321 14.4238 19.0525 11.698 23.1045 10.0609L23.0352 10.2991Z" fill="url(#paint11_linear_192_833)"/>
<defs>
<linearGradient id="paint0_linear_192_833" x1="14.6589" y1="-21.2135" x2="116.451" y2="91.6437" gradientUnits="userSpaceOnUse">
<stop offset="0.191311" stop-color="#0AE7ED"/>
<stop offset="1" stop-color="#8BC44A"/>
</linearGradient>
<linearGradient id="paint1_linear_192_833" x1="14.6589" y1="-21.2135" x2="116.451" y2="91.6437" gradientUnits="userSpaceOnUse">
<stop offset="0.191311" stop-color="#0AE7ED"/>
<stop offset="1" stop-color="#8BC44A"/>
</linearGradient>
<linearGradient id="paint2_linear_192_833" x1="29.0832" y1="20.2983" x2="51.3574" y2="39.3038" gradientUnits="userSpaceOnUse">
<stop offset="0.191311" stop-color="#0AE7ED"/>
<stop offset="1" stop-color="#8BC44A"/>
</linearGradient>
<linearGradient id="paint3_linear_192_833" x1="29.0832" y1="20.2983" x2="51.3574" y2="39.3038" gradientUnits="userSpaceOnUse">
<stop offset="0.191311" stop-color="#0AE7ED"/>
<stop offset="1" stop-color="#8BC44A"/>
</linearGradient>
<linearGradient id="paint4_linear_192_833" x1="35.9558" y1="17.1523" x2="49.7197" y2="31.5501" gradientUnits="userSpaceOnUse">
<stop offset="0.191311" stop-color="#0AE7ED"/>
<stop offset="1" stop-color="#8BC44A"/>
</linearGradient>
<linearGradient id="paint5_linear_192_833" x1="35.9558" y1="17.1523" x2="49.7197" y2="31.5501" gradientUnits="userSpaceOnUse">
<stop offset="0.191311" stop-color="#0AE7ED"/>
<stop offset="1" stop-color="#8BC44A"/>
</linearGradient>
<linearGradient id="paint6_linear_192_833" x1="41.0418" y1="29.1035" x2="31.0023" y2="-2.49291" gradientUnits="userSpaceOnUse">
<stop offset="0.191311" stop-color="#0AE7ED"/>
<stop offset="1" stop-color="#8BC44A"/>
</linearGradient>
<linearGradient id="paint7_linear_192_833" x1="22.946" y1="34.9426" x2="32.9855" y2="66.5391" gradientUnits="userSpaceOnUse">
<stop offset="0.191311" stop-color="#0AE7ED"/>
<stop offset="1" stop-color="#8BC44A"/>
</linearGradient>
<linearGradient id="paint8_linear_192_833" x1="35.9711" y1="44.35" x2="79.0178" y2="30.6721" gradientUnits="userSpaceOnUse">
<stop offset="0.191311" stop-color="#0AE7ED"/>
<stop offset="1" stop-color="#8BC44A"/>
</linearGradient>
<linearGradient id="paint9_linear_192_833" x1="28.0166" y1="19.6962" x2="-15.03" y2="33.374" gradientUnits="userSpaceOnUse">
<stop offset="0.191311" stop-color="#0AE7ED"/>
<stop offset="1" stop-color="#8BC44A"/>
</linearGradient>
<linearGradient id="paint10_linear_192_833" x1="35.9711" y1="44.35" x2="79.0178" y2="30.6721" gradientUnits="userSpaceOnUse">
<stop offset="0.191311" stop-color="#0AE7ED"/>
<stop offset="1" stop-color="#8BC44A"/>
</linearGradient>
<linearGradient id="paint11_linear_192_833" x1="28.0166" y1="19.6962" x2="-15.03" y2="33.374" gradientUnits="userSpaceOnUse">
<stop offset="0.191311" stop-color="#0AE7ED"/>
<stop offset="1" stop-color="#8BC44A"/>
</linearGradient>
</defs>
</svg>
